<?xml version="1.0" encoding="utf-8"?>
<!-- Svg Vector Icons : http://www.onlinewebfonts.com/icon -->
<!DOCTYPE svg PUBLIC "-//W3C//DTD SVG 1.1//EN" "http://www.w3.org/Graphics/SVG/1.1/DTD/svg11.dtd">
<svg version="1.1" xmlns="http://www.w3.org/2000/svg" xmlns:xlink="http://www.w3.org/1999/xlink" x="0px" y="0px" viewBox="0 0 1000 1000" enable-background="new 0 0 1000 1000" xml:space="preserve">
<metadata> Svg Vector Icons : http://www.onlinewebfonts.com/icon </metadata>
<g><path fill="#ffffff" d="M440.7,762.5L34.6,356.3c-32.8-32.8-32.8-86,0-118.6l0,0c32.8-32.8,85.9-32.8,118.8-0.1l0,0l346.6,346.7l346.9-346.7c32.8-32.7,85.8-32.7,118.6,0l0,0c32.8,32.8,32.8,86,0,118.8l0,0L559.3,762.5c-15.6,15.4-37.2,24.4-59.4,24.4l0,0C477.8,787,456.2,778,440.7,762.5L440.7,762.5z"/></g>
</svg>