<?xml version="1.0" encoding="UTF-8" standalone="no"?>
<svg
   xmlns:dc="http://purl.org/dc/elements/1.1/"
   xmlns:cc="http://creativecommons.org/ns#"
   xmlns:rdf="http://www.w3.org/1999/02/22-rdf-syntax-ns#"
   xmlns:svg="http://www.w3.org/2000/svg"
   xmlns="http://www.w3.org/2000/svg"
   height="128"
   width="128"
   id="svg4594"
   version="1.1"
   y="0px"
   x="0px"
   viewBox="0 0 128 128"
   data-name="Layer 1">
  <metadata
     id="metadata4600">
    <rdf:RDF>
      <cc:Work
         rdf:about="">
        <dc:format>image/svg+xml</dc:format>
        <dc:type
           rdf:resource="http://purl.org/dc/dcmitype/StillImage" />
        <dc:title>Miscellaneous 38 final</dc:title>
      </cc:Work>
    </rdf:RDF>
  </metadata>
  <defs
     id="defs4598" />
  <title
     id="title4580">Miscellaneous 38 final</title>
  <path
     fill="#f1c40f"
     id="path4582"
     d="M 120,32.17 A 8,8 0 0 0 112.32,38 H 103 a 2,2 0 0 0 -1.41,0.59 L 88.17,52 H 71 a 2,2 0 0 0 -2,2 V 73 H 50 V 46 h 32 a 2,2 0 0 0 1.46,-0.63 l 14,-14.89 A 2,2 0 0 0 96,27.11 H 52.52 a 2,2 0 0 0 -1.43,0.6 L 37.16,42 H 15.8 A 8,8 0 0 0 8,35.7 8.07,8.07 0 1 0 15.68,46 H 38 a 2,2 0 0 0 1.43,-0.6 L 53.36,31.11 h 38 L 81.14,42 H 48 a 2,2 0 0 0 -2,2 V 60 H 27.74 a 8.07,8.07 0 1 0 0,4 H 46 v 11 a 2,2 0 0 0 2,2 h 21 v 11 a 2,2 0 0 0 2,2 h 19.11 l 5.4,6 H 54.79 L 41.36,83.53 A 2,2 0 0 0 40,83 H 15.68 a 8.07,8.07 0 1 0 0.12,4 H 39.21 L 52.64,99.47 A 2,2 0 0 0 54,100 h 46 a 2,2 0 0 0 1.49,-3.34 l -9,-10 A 2,2 0 0 0 91,86 H 73 V 56 h 16 a 2,2 0 0 0 1.41,-0.59 L 103.83,42 h 8.37 A 8,8 0 1 0 120,32.17 Z M 8,47.83 a 4.07,4.07 0 1 1 4,-4.07 4,4 0 0 1 -4,4.07 z M 20,66.07 A 4.07,4.07 0 1 1 24,62 4,4 0 0 1 20,66.07 Z M 8,89.3 a 4.07,4.07 0 1 1 4,-4.07 4,4 0 0 1 -4,4.07 z m 112,-45 a 4.07,4.07 0 1 1 4,-4.07 4,4 0 0 1 -4,4.07 z" />
  <path
   fill="#f1c40f"
     id="path4584"
     d="m 90,66 a 2,2 0 0 0 0,-4 H 80 a 2,2 0 0 0 -2,2 v 14 a 2,2 0 0 0 2,2 h 15.09 l 6.4,7.32 A 2,2 0 0 0 103,88 h 7.32 a 8.07,8.07 0 1 0 -0.11,-4 h -6.29 l -6.4,-7.32 A 2,2 0 0 0 96,76 H 82 V 66 Z m 28,15.71 a 4.07,4.07 0 1 1 -4,4.07 4,4 0 0 1 4,-4.07 z" />
  <path
     fill="#4cd137"
     id="path4586"
     d="M 126,17 H 50 a 2,2 0 0 0 -1.37,0.54 L 33.21,32 H 24.82 L 18.4,25.67 A 2,2 0 0 0 17,25.09 H 2 a 2,2 0 0 0 0,4 h 14.18 l 6.42,6.33 A 2,2 0 0 0 24,36 h 10 a 2,2 0 0 0 1.37,-0.54 L 50.79,21 H 126 a 2,2 0 0 0 0,-4 z" />
  <path
     fill="#4cd137"
     id="path4588"
     d="M 126,107 H 50.79 L 35.37,92.54 A 2,2 0 0 0 34,92 H 24 a 2,2 0 0 0 -1.41,0.58 l -6.42,6.33 H 2 a 2,2 0 0 0 0,4 h 15 a 2,2 0 0 0 1.41,-0.58 L 24.82,96 h 8.39 l 15.42,14.46 A 2,2 0 0 0 50,111 h 76 a 2,2 0 0 0 0,-4 z" />
</svg>
